<svg width="143" height="31" viewBox="0 0 143 31" fill="none" xmlns="http://www.w3.org/2000/svg">
<path d="M116.42 0.0217285H112.73V1.29173H116.42V0.0217285Z" fill="#2F6A49"/>
<path d="M116.42 2.11182H112.73V3.38182H116.42V2.11182Z" fill="#2F6A49"/>
<path d="M116.42 4.20166H112.73V5.47166H116.42V4.20166Z" fill="#2F6A49"/>
<path d="M116.42 6.29175H112.73V7.56175H116.42V6.29175Z" fill="#2F6A49"/>
<path d="M142.17 4.22182L142.74 3.65182C141.678 2.58829 140.431 1.72752 139.06 1.11182L142.17 4.22182Z" fill="#2F6A49"/>
<path d="M135.64 0.131836L140.95 5.44184L141.69 4.70184L137.53 0.541836C136.912 0.356174 136.28 0.21909 135.64 0.131836V0.131836Z" fill="#2F6A49"/>
<path d="M133.11 0.0216973L139.72 6.6317L140.46 5.8917L134.58 0.0216973C134.09 -0.00723242 133.6 -0.00723242 133.11 0.0216973V0.0216973Z" fill="#2F6A49"/>
<path d="M131 0.381846L138.5 7.88185L139.24 7.14185L132.24 0.141846C131.823 0.200747 131.409 0.280851 131 0.381846V0.381846Z" fill="#2F6A49"/>
<path d="M129.16 1.0218L137.27 9.1318L138.01 8.3918L130.25 0.591797C129.883 0.711797 129.52 0.85513 129.16 1.0218Z" fill="#2F6A49"/>
<path d="M127.55 1.82176L136.06 10.3318L136.8 9.59176L128.51 1.30176C128.17 1.46176 127.85 1.63509 127.55 1.82176Z" fill="#2F6A49"/>
<path d="M126.12 2.84166L134.84 11.5617L135.58 10.8217L127 2.20166C126.68 2.40166 126.39 2.61166 126.12 2.84166Z" fill="#2F6A49"/>
<path d="M125.22 3.65174L124.86 4.03174L133.61 12.7817L134.35 12.0417L125.6 3.28174L125.22 3.65174Z" fill="#2F6A49"/>
<path d="M123.78 5.39177L132.39 14.0218L133.13 13.2818L124.41 4.56177C124.19 4.81177 124 5.10177 123.78 5.39177Z" fill="#2F6A49"/>
<path d="M122.87 6.93168L131.16 15.2217L131.9 14.4817L123.4 5.97168C123.207 6.28501 123.03 6.60501 122.87 6.93168Z" fill="#2F6A49"/>
<path d="M122.17 8.6718L129.94 16.4418L130.68 15.7018L122.57 7.5918C122.417 7.94513 122.283 8.30513 122.17 8.6718Z" fill="#2F6A49"/>
<path d="M121.72 10.6716L128.72 17.6716L129.46 16.9316L122 9.42163C121.885 9.83319 121.792 10.2504 121.72 10.6716V10.6716Z" fill="#2F6A49"/>
<path d="M121.61 13.0218L127.49 18.9018L128.23 18.1618L121.62 11.5518C121.588 12.0411 121.584 12.532 121.61 13.0218V13.0218Z" fill="#2F6A49"/>
<path d="M122.11 15.9517L126.27 20.1117L127.01 19.3717L121.71 14.0217C121.792 14.6747 121.926 15.32 122.11 15.9517V15.9517Z" fill="#2F6A49"/>
<path d="M125.22 21.1617L125.79 20.5917L122.68 17.4817C123.296 18.8527 124.156 20.0998 125.22 21.1617V21.1617Z" fill="#2F6A49"/>
<path d="M136.8 9.5918L119.34 27.0218C119.607 27.2551 119.883 27.4751 120.17 27.6818L137.45 10.4218C137.25 10.1551 137.033 9.87846 136.8 9.5918Z" fill="#2F6A49"/>
<path d="M137.84 11.0217L120.74 28.1217C121.05 28.3217 121.36 28.5017 121.68 28.6717L138.38 11.9717C138.22 11.6117 138 11.3017 137.84 11.0217Z" fill="#2F6A49"/>
<path d="M138.7 12.5818L122.33 28.9418C122.683 29.1018 123.04 29.2418 123.4 29.3618L139.12 13.6418C138.993 13.2818 138.853 12.9285 138.7 12.5818Z" fill="#2F6A49"/>
<path d="M139.34 14.3818L124.14 29.5818C124.542 29.6923 124.949 29.7824 125.36 29.8518L139.61 15.6018C139.541 15.1909 139.45 14.7837 139.34 14.3818V14.3818Z" fill="#2F6A49"/>
<path d="M139.72 16.4517L126.2 29.9717C126.679 30.0161 127.159 30.0328 127.64 30.0217L139.77 17.8917C139.781 17.4111 139.764 16.9303 139.72 16.4517V16.4517Z" fill="#2F6A49"/>
<path d="M139.71 18.9016L128.66 29.9616C129.27 29.8998 129.875 29.7928 130.47 29.6416L139.4 20.7116C139.548 20.1168 139.651 19.5118 139.71 18.9016V18.9016Z" fill="#2F6A49"/>
<path d="M131.88 29.1818C133.482 28.5597 134.938 27.6106 136.153 26.3951C137.369 25.1796 138.318 23.7243 138.94 22.1218L131.88 29.1818Z" fill="#2F6A49"/>
<path d="M1.27 0.0217285H0V30.0217H1.27V0.0217285Z" fill="#2F6A49"/>
<path d="M3.36 0.0217285H2.09V30.0217H3.36V0.0217285Z" fill="#2F6A49"/>
<path d="M5.44999 0.0217285H4.17999V30.0217H5.44999V0.0217285Z" fill="#2F6A49"/>
<path d="M7.54002 0.0217285H6.27002V30.0217H7.54002V0.0217285Z" fill="#2F6A49"/>
<path d="M9.62999 0.0217285H8.35999V30.0217H9.62999V0.0217285Z" fill="#2F6A49"/>
<path d="M11.72 0.0217285H10.45V30.0217H11.72V0.0217285Z" fill="#2F6A49"/>
<path d="M13.81 0.0217285H12.54V30.0217H20.99V28.7517H13.81V27.9317H20.99V26.6617H13.81V25.8417H20.99V24.5717H13.81V23.7517H20.99V22.4817H13.81V21.6617H20.99V20.3917H13.81V0.0217285Z" fill="#2F6A49"/>
<path d="M61.48 0.0217285H60.21V30.0217H61.48V0.0217285Z" fill="#2F6A49"/>
<path d="M63.57 0.0217285H62.3V30.0217H63.57V0.0217285Z" fill="#2F6A49"/>
<path d="M65.66 0.0217285H64.39V30.0217H65.66V0.0217285Z" fill="#2F6A49"/>
<path d="M67.75 0.0217285H66.48V30.0217H67.75V0.0217285Z" fill="#2F6A49"/>
<path d="M69.84 0.0217285H68.57V30.0217H69.84V0.0217285Z" fill="#2F6A49"/>
<path d="M71.93 0.0217285H70.66V30.0217H71.93V0.0217285Z" fill="#2F6A49"/>
<path d="M74.02 0.0217285H72.75V30.0217H81.2V28.7517H74.02V27.9317H81.2V26.6617H74.02V25.8417H81.2V24.5717H74.02V23.7517H81.2V22.4817H74.02V21.6617H81.2V20.3917H74.02V0.0217285Z" fill="#2F6A49"/>
<path d="M99.5 0.0217285L99.16 0.811729L98.82 1.60173L110.96 30.0217H111.64H112.31L99.5 0.0217285Z" fill="#2F6A49"/>
<path d="M97.75 4.10174L108.82 30.0217H110.17L98.42 2.53174L97.75 4.10174Z" fill="#2F6A49"/>
<path d="M96.68 6.61174L106.68 30.0217H108.03L97.35 5.03174L96.68 6.61174Z" fill="#2F6A49"/>
<path d="M95.61 9.11175L104.54 30.0217H105.89L96.28 7.54175L95.61 9.11175Z" fill="#2F6A49"/>
<path d="M94.54 11.6217L102.4 30.0217H103.75L95.21 10.0417L94.54 11.6217Z" fill="#2F6A49"/>
<path d="M93.61 13.7918L93.47 14.1218L86.67 30.0218H87.91L94.08 15.5718L94.48 16.5018L88.71 30.0218H90.06L95.16 18.0818L95.56 19.0118L90.85 30.0218H92.2L96.2 20.5818L96.6 21.5118L93 30.0218H94.35L97.35 23.0918L97.75 24.0218L95.19 30.0218H96.54L98.43 25.5918L98.83 26.5218L97.27 30.0218H98.62L99.44 28.1018L100.26 30.0218H101.61L94.14 12.5518L93.61 13.7918Z" fill="#2F6A49"/>
<path d="M40.45 1.02173V0.0217285C38.6307 0.0296774 36.828 0.368527 35.13 1.02173H40.45Z" fill="#2F6A49"/>
<path d="M31.36 3.09178H40.45V1.82178H33.33C32.6412 2.19308 31.9825 2.61771 31.36 3.09178V3.09178Z" fill="#2F6A49"/>
<path d="M29.13 5.18162H40.45V3.91162H30.37C29.9321 4.31026 29.5181 4.73432 29.13 5.18162Z" fill="#2F6A49"/>
<path d="M27.6 7.28173H40.45V6.02173H28.45C28.1456 6.42709 27.8619 6.84763 27.6 7.28173V7.28173Z" fill="#2F6A49"/>
<path d="M26.55 9.37181H40.45V8.10181H27.14C26.9267 8.51514 26.73 8.93847 26.55 9.37181Z" fill="#2F6A49"/>
<path d="M25.88 11.4717H40.45V10.1917H26.25C26.0833 10.6117 25.96 11.0383 25.88 11.4717Z" fill="#2F6A49"/>
<path d="M25.52 13.5617H40.45V12.2917H25.7C25.62 12.7117 25.56 13.1317 25.52 13.5617Z" fill="#2F6A49"/>
<path d="M25.45 15.0218C25.45 15.2318 25.45 15.4518 25.45 15.6618H40.45V14.3818H25.45C25.46 14.5918 25.45 14.8118 25.45 15.0218Z" fill="#2F6A49"/>
<path d="M25.7 17.7517H40.45V16.4817H25.52C25.56 16.9117 25.62 17.3317 25.7 17.7517Z" fill="#2F6A49"/>
<path d="M26.25 19.8518H40.45V18.5718H25.88C25.96 19.0051 26.0833 19.4318 26.25 19.8518Z" fill="#2F6A49"/>
<path d="M27.14 21.9416H40.45V20.6716H26.55C26.73 21.105 26.9267 21.5283 27.14 21.9416Z" fill="#2F6A49"/>
<path d="M28.46 24.0217H40.46V22.7617H27.6C27.8651 23.196 28.1522 23.6166 28.46 24.0217V24.0217Z" fill="#2F6A49"/>
<path d="M30.37 26.1318H40.45V24.8618H29.13C29.5181 25.3091 29.9321 25.7332 30.37 26.1318V26.1318Z" fill="#2F6A49"/>
<path d="M33.33 28.2217H40.45V26.9517H31.36C31.9825 27.4257 32.6412 27.8504 33.33 28.2217V28.2217Z" fill="#2F6A49"/>
<path d="M40.45 30.0217V29.0217H35.13C36.828 29.6749 38.6307 30.0138 40.45 30.0217Z" fill="#2F6A49"/>
<path d="M41.27 0.0217285V30.0217C41.7 30.0217 42.12 29.9417 42.54 29.8717V0.221729C42.12 0.151729 41.7 0.101729 41.27 0.0217285Z" fill="#2F6A49"/>
<path d="M43.36 0.381836V29.6618C43.79 29.5618 44.22 29.4518 44.63 29.3218V0.721836C44.22 0.591836 43.8 0.471836 43.36 0.381836Z" fill="#2F6A49"/>
<path d="M45.46 1.02173V29.0217C45.8933 28.8551 46.3167 28.6717 46.73 28.4717V1.56173C46.3167 1.35506 45.8933 1.17506 45.46 1.02173Z" fill="#2F6A49"/>
<path d="M47.55 2.02173V28.0217C47.9868 27.7699 48.4107 27.4962 48.82 27.2017V2.82173C48.4103 2.53404 47.9864 2.26703 47.55 2.02173V2.02173Z" fill="#2F6A49"/>
<path d="M49.65 3.44165V26.6017C50.0959 26.2297 50.5199 25.8324 50.92 25.4116V4.63165C50.5199 4.21088 50.0959 3.81355 49.65 3.44165V3.44165Z" fill="#2F6A49"/>
<path d="M51.74 5.55176V24.4918C52.2047 23.9137 52.6258 23.3021 53 22.6618V7.38176C52.6258 6.74145 52.2047 6.12977 51.74 5.55176V5.55176Z" fill="#2F6A49"/>
<path d="M53.84 21.0217C54.6659 19.1292 55.0923 17.0866 55.0923 15.0217C55.0923 12.9569 54.6659 10.9142 53.84 9.02173V21.0217Z" fill="#2F6A49"/>
</svg>
