<?xml version="1.0" encoding="utf-8"?>
<!-- Generator: Adobe Illustrator 21.1.0, SVG Export Plug-In . SVG Version: 6.00 Build 0)  -->
<svg version="1.1" id="Layer_1" xmlns="http://www.w3.org/2000/svg" xmlns:xlink="http://www.w3.org/1999/xlink" x="0px" y="0px"
	 viewBox="0 0 180 180" style="enable-background:new 0 0 180 180;" xml:space="preserve">
<style type="text/css">
	.st0{fill:#FFFFFF;}
	.st1{fill:#FFB6C4;}
	.st2{fill:#BABABA;}
</style>
<title>map</title>
<desc>Created with Sketch.</desc>
<rect y="0" class="st0" width="180" height="180"/>
<g>
	<g id="tube_16_" transform="translate(149.000000, 40.000000)">
		<g>
			<path class="st1" d="M-10.1,119c-3.1,0-5.7-2.6-5.7-5.7c0-3.1,2.6-5.7,5.7-5.7s5.7,2.6,5.7,5.7C-4.4,116.4-7,119-10.1,119z"/>
		</g>
	</g>
	<g>
		<path class="st0" d="M136.2,154.4c0.5,1,1.6,1.6,2.7,1.6c1.1,0,2.2-0.6,2.7-1.6l0.8,0c-0.6,1.4-2,2.4-3.6,2.4
			c-1.6,0-3-0.9-3.6-2.4L136.2,154.4z"/>
	</g>
	<g>
		<circle class="st0" cx="140.5" cy="152" r="0.7"/>
		<circle class="st0" cx="137.3" cy="152" r="0.7"/>
	</g>
</g>
<g>
	<g id="tube_25_" transform="translate(149.000000, 40.000000)">
		<g>
			<path class="st1" d="M-111.6,119c-3.1,0-5.7-2.6-5.7-5.7c0-3.1,2.6-5.7,5.7-5.7s5.7,2.6,5.7,5.7
				C-105.9,116.4-108.4,119-111.6,119z"/>
		</g>
	</g>
	<g>
		<path class="st0" d="M34.7,154.4c0.5,1,1.6,1.6,2.7,1.6c1.1,0,2.2-0.6,2.7-1.6l0.8,0c-0.6,1.4-2,2.4-3.6,2.4c-1.6,0-3-0.9-3.6-2.4
			L34.7,154.4z"/>
	</g>
	<g>
		<circle class="st0" cx="39.1" cy="152" r="0.7"/>
		<circle class="st0" cx="35.8" cy="152" r="0.7"/>
	</g>
</g>
<g>
	<g id="tube_24_" transform="translate(149.000000, 40.000000)">
		<g>
			<path class="st1" d="M14.3,55.2c-3.1,0-5.7-2.6-5.7-5.7c0-3.1,2.6-5.7,5.7-5.7s5.7,2.6,5.7,5.7C20,52.6,17.4,55.2,14.3,55.2z"/>
		</g>
	</g>
	<g>
		<path class="st0" d="M160.5,90.6c0.5,1,1.6,1.6,2.7,1.6c1.1,0,2.2-0.6,2.7-1.6l0.8,0c-0.6,1.4-2,2.4-3.6,2.4c-1.6,0-3-0.9-3.6-2.4
			L160.5,90.6z"/>
	</g>
	<g>
		<circle class="st0" cx="164.9" cy="88.2" r="0.7"/>
		<circle class="st0" cx="161.6" cy="88.2" r="0.7"/>
	</g>
</g>
<rect x="13.8" y="0" class="st2" width="1.6" height="166.1"/>
<polygon class="st2" points="86.5,180 84.9,180 85.2,0 86.7,0 "/>
<rect x="49.2" y="76.6" class="st2" width="72.4" height="1.6"/>
<rect x="78.7" y="110.8" class="st2" width="72.4" height="1.6"/>
<rect x="48.6" y="47" class="st2" width="103" height="1.6"/>
<rect x="48.6" y="137.7" class="st2" width="103" height="1.6"/>
<g id="major_4_">
	<rect y="30.7" width="36.8" height="2.6"/>
	<rect x="46.9" y="0" width="2.6" height="20.1"/>
	<rect x="46.9" y="43.5" width="2.6" height="136.5"/>
	<polygon points="122.8,113.2 0,113.2 0,110.6 120.2,110.6 120.2,0 122.8,0 	"/>
	<polygon points="152.5,167.1 0,167.1 0,164.5 149.9,164.5 149.9,0 152.5,0 	"/>
	<rect x="59.7" y="30.7" width="91" height="2.6"/>
	<polygon points="180,119.2 74.7,33 76.4,31 180,115.9 	"/>
	<path d="M47.7,44.4c-6.9,0-12.4-5.6-12.4-12.4s5.6-12.4,12.4-12.4S60.1,25.1,60.1,32S54.6,44.4,47.7,44.4z M47.7,22.1
		c-5.4,0-9.8,4.4-9.8,9.8s4.4,9.8,9.8,9.8s9.8-4.4,9.8-9.8S53.1,22.1,47.7,22.1z"/>
	<rect x="151.4" y="70" width="28.6" height="2.6"/>
</g>
<path class="st1" d="M65.7,95.6c0.9-1.1,1.4-2.5,1.4-4c0-3.6-2.9-6.5-6.5-6.5c-3.6,0-6.5,2.9-6.5,6.5c0,1.5,0.5,2.9,1.4,4l5.1,9.2
	L65.7,95.6z"/>
<circle class="st0" cx="60.7" cy="91.5" r="2.3"/>
<g>
	<g id="tube_19_" transform="translate(149.000000, 40.000000)">
		<g>
			<path class="st1" d="M-101.3-2.3c-3.1,0-5.7-2.6-5.7-5.7s2.6-5.7,5.7-5.7c3.1,0,5.7,2.6,5.7,5.7S-98.1-2.3-101.3-2.3z"/>
		</g>
	</g>
	<g>
		<path class="st0" d="M45,33.1c0.5,1,1.6,1.6,2.7,1.6c1.1,0,2.2-0.6,2.7-1.6l0.8,0c-0.6,1.4-2,2.4-3.6,2.4c-1.6,0-3-0.9-3.6-2.4
			L45,33.1z"/>
	</g>
	<g>
		<circle class="st0" cx="49.4" cy="30.7" r="0.7"/>
		<circle class="st0" cx="46.1" cy="30.7" r="0.7"/>
	</g>
</g>
<path class="st0" d="M50.7,33"/>
<line class="st0" x1="51.6" y1="33" x2="50.7" y2="33"/>
<line class="st0" x1="43.9" y1="33" x2="44.8" y2="33"/>
</svg>
