<svg width="98" height="35" viewBox="0 0 98 35" fill="none" xmlns="http://www.w3.org/2000/svg">
<path d="M57.7418 18.8667C57.6064 19.0707 57.5202 19.2096 57.427 19.3451C56.5513 20.6007 55.5666 21.7474 54.2266 22.5406C52.4295 23.6028 50.4812 24.0407 48.4519 23.601C47.4109 23.3742 46.4403 22.792 45.4591 22.326C45.2322 22.2187 45.1091 22.217 44.9087 22.3348C44.0664 22.8307 43.2487 23.3882 42.3572 23.7734C40.7763 24.4575 39.1111 24.8427 37.3896 24.3872C36.3099 24.1023 35.3779 23.4938 34.5339 22.7621C33.936 22.2433 33.8973 22.2433 33.2907 22.7428C32.2004 23.6397 30.9414 24.2183 29.6243 24.6967C27.9907 25.2894 26.3044 25.6534 24.5811 25.824C22.478 26.0315 20.5279 25.6745 19.1053 23.9457C17.9641 22.5599 17.6599 20.9525 18.358 19.2835C19.1229 17.4545 20.0056 15.6747 20.8356 13.8721C21.2682 12.933 21.7043 11.9956 22.1246 11.0512C22.2019 10.8771 22.2318 10.6748 22.2406 10.4831C22.2565 10.1314 22.3285 9.74625 21.9223 9.53345C21.5074 9.31714 21.0168 9.35583 20.7108 9.74273C20.3292 10.2246 19.9898 10.754 19.7067 11.3009C18.7642 13.1088 17.8533 14.9343 16.9337 16.7545C16.2443 18.1193 15.5673 19.491 14.8728 20.8522C14.2133 22.1431 12.9754 22.6355 11.632 22.1325C11.18 21.962 10.8969 21.6296 10.8196 21.1213C10.7123 20.402 10.9479 19.7566 11.2029 19.1129C11.7603 17.7025 12.3248 16.2955 12.8822 14.8851C13.1811 14.1289 13.4801 13.3726 13.7597 12.6094C13.9566 12.0765 14.0146 11.5102 13.786 10.9861C13.6084 10.5816 13.2603 10.2897 12.7714 10.3336C12.2369 10.3811 11.8166 10.6608 11.6144 11.1567C10.9057 12.9066 10.2252 14.6688 9.52887 16.4239C8.69537 18.5238 7.87417 20.6306 7.0055 22.7164C6.68371 23.4867 6.19838 24.1902 5.38246 24.5191C4.96923 24.6861 4.50149 24.7899 4.0566 24.7969C2.66743 24.8145 1.46994 24.352 0.650504 23.1719C-0.000118529 22.2381 -0.158378 21.1952 0.156383 20.0907C0.448284 19.0689 0.738426 18.0472 1.04439 17.0307C1.33454 16.0669 1.64051 15.1067 1.9412 14.1464C2.22079 13.2513 2.4828 12.3491 2.78701 11.4627C3.38488 9.71635 3.86669 7.919 4.81273 6.31685C5.45984 5.2212 6.50962 4.62853 7.7124 4.26097C8.96968 3.87758 10.0423 4.35945 11.115 4.89409C11.5229 5.09634 11.9239 5.31265 12.3424 5.48852C12.9262 5.73297 13.4572 5.57821 13.9285 5.19482C14.3136 4.88178 14.7022 4.56698 15.0574 4.22052C15.9454 3.3535 17.8621 3.19346 18.7994 4.20117C19.0156 4.43332 19.2706 4.62853 19.508 4.83957C19.9986 5.2722 20.2008 5.31793 20.7688 4.99609C22.1193 4.23459 23.5173 4.34011 24.8906 4.82726C25.6872 5.11041 26.1655 5.78925 26.4697 6.5912C26.9181 7.77303 26.7299 8.91264 26.2815 10.0241C25.4551 12.0677 24.5547 14.0796 23.7494 16.1302C23.2711 17.3472 22.8684 18.5976 22.5237 19.8586C22.3831 20.3721 22.3831 20.9824 22.5132 21.4977C22.7101 22.2785 23.4258 22.5353 24.1503 22.6267C25.2528 22.7657 26.3343 22.5617 27.3893 22.2697C28.2914 22.0217 29.1794 21.714 30.0604 21.3957C30.4859 21.2427 30.8816 21.007 31.2878 20.7995C31.6342 20.6236 31.6623 20.3668 31.4795 20.0432C31.1067 19.3837 30.7128 18.733 30.384 18.0507C29.6876 16.6086 29.1161 15.1207 29.2691 13.4781C29.4027 12.0396 29.9215 10.7891 31.2491 10.0329C33.208 8.91616 34.7994 9.22393 36.2396 10.8929C37.4845 12.3368 37.896 14.0743 37.3614 15.9368C37.0625 16.9779 36.6335 17.9838 36.2255 18.9916C36.113 19.2712 36.178 19.4488 36.3539 19.6124C37.1786 20.3827 38.1193 20.9824 39.1638 21.4062C39.5577 21.5663 39.9745 21.6858 40.3912 21.7703C41.288 21.9496 42.1215 21.7368 42.8689 21.2286C43.2241 20.9877 43.2329 20.7625 42.9849 20.4249C41.2652 18.0788 40.5847 15.4672 41.1016 12.5988C41.2951 11.5243 41.7927 10.5095 42.9445 10.2C43.6567 10.0083 44.462 10.0171 45.2041 10.1103C46.4086 10.2633 47.4988 10.7434 48.2392 11.781C49.1272 13.0262 49.354 14.3874 48.9707 15.8752C48.6963 16.9445 48.1354 17.8519 47.5182 18.7348C47.2738 19.0848 47.265 19.4066 47.5973 19.6423C48.1108 20.0028 48.6313 20.3985 49.2116 20.6078C50.4706 21.0615 51.7789 21.0211 53.0467 20.6131C54.4359 20.1664 55.4118 19.2448 55.9675 17.8783C56.6322 16.2428 56.641 14.5316 56.6058 12.8134C56.5794 11.4715 56.532 10.1279 56.4915 8.78426C56.4774 8.30414 56.4001 8.27601 55.9429 8.36922C54.7383 8.61191 53.5285 8.82823 52.3187 9.04982C51.9371 9.11841 51.5538 9.16589 51.1722 9.23448C50.3422 9.38397 49.6565 9.04278 49.6107 8.072C49.5633 7.09242 49.4208 6.11812 49.3206 5.14206C49.3153 5.08754 49.31 5.03127 49.3065 4.97675C49.2503 3.82658 49.5281 3.20225 50.9085 3.25149C52.3328 3.30425 53.7589 3.34998 55.1815 3.4256C55.8813 3.46253 56.1275 3.28491 56.1732 2.59024C56.2084 2.05033 56.2242 1.51041 56.2576 0.972262C56.3086 0.163275 56.4933 -0.0284195 57.3145 0.00323652C57.8051 0.0225819 58.2992 0.108757 58.7792 0.216035C59.4562 0.367281 59.8097 0.843879 59.8572 1.51745C59.8958 2.06791 59.88 2.62365 59.8712 3.17763C59.8642 3.56981 59.9855 3.77909 60.4234 3.82306C61.6895 3.95144 62.9503 4.12731 64.2146 4.27856C64.8107 4.3489 65.1465 4.5916 65.2274 5.03478C65.3681 5.80508 65.2011 6.33268 64.619 6.54372C63.8049 6.83742 62.9643 7.06253 62.1238 7.27005C61.5347 7.41602 60.9263 7.47757 60.3284 7.58837C59.9275 7.66223 59.7095 7.87327 59.713 8.32349C59.7288 10.5535 59.6778 12.7852 59.7429 15.0135C59.7763 16.183 59.9521 17.3525 60.4498 18.4446C60.8524 19.3292 61.5382 19.6774 62.4948 19.5174C63.8963 19.2817 65.1817 18.7893 66.3001 17.9029C66.9208 17.4105 67.3305 16.8091 67.3604 15.9772C67.4167 14.4542 67.4923 12.933 67.5802 11.4135C67.6066 10.9756 67.6558 10.5201 67.8018 10.1121C67.8827 9.88519 68.1816 9.58445 68.3891 9.57918C69.5339 9.54401 70.6874 9.53345 71.8269 9.63194C72.5443 9.69349 73.0367 10.3653 72.998 11.1233C72.947 12.1855 72.8098 13.2442 72.7078 14.3047C72.583 15.6132 72.4669 16.9234 72.328 18.2301C72.1873 19.5526 73.2442 20.2086 74.2922 20.2209C75.1696 20.2314 75.6884 19.9043 76.0612 18.974C76.448 18.012 76.6766 16.9691 76.8437 15.9403C77.0793 14.4806 77.1901 12.9998 77.3642 11.5295C77.4345 10.9298 77.8091 10.4673 78.2751 10.3671C78.8131 10.251 79.5218 10.4708 79.6976 10.9632C79.8453 11.3748 79.8119 11.8778 79.7609 12.3297C79.571 14.004 79.2967 15.6712 79.1384 17.349C79.0417 18.3795 79.6203 19.1129 80.6208 19.4172C81.1202 19.5684 81.6372 19.688 82.1542 19.7478C83.0615 19.8516 83.7034 19.1885 83.8933 18.158C84.0533 17.2909 84.0744 16.3975 84.1535 15.5147C84.245 14.4665 84.2573 13.406 84.4366 12.3737C84.7004 10.8454 85.6869 9.45959 87.5157 9.01465C88.6129 8.74733 89.7207 8.71567 90.8162 8.8423C92.4868 9.03399 94.2364 10.1701 94.771 12.0906C95.1772 13.5502 95.0154 14.9607 94.5389 16.3641C93.9849 17.9909 92.9756 19.2589 91.5636 20.2244C91.4335 20.3141 91.3578 20.4829 91.2576 20.6148C91.4352 20.694 91.6146 20.8417 91.7904 20.8382C93.4785 20.8118 95.0681 20.4266 96.5259 19.542C96.8547 19.3433 97.2134 19.1921 97.5599 19.0267C97.8781 18.8755 98.0663 19.0549 97.9784 19.3292C97.8307 19.79 97.6531 20.2772 97.3576 20.65C96.1091 22.2293 94.4052 22.9855 92.4358 23.1174C91.6005 23.1737 90.7529 23.0611 89.9106 23.0154C89.2759 22.9802 88.6411 22.9239 88.0063 22.8817C87.6845 22.8606 87.4981 22.9961 87.4172 23.3302C86.9107 25.4177 86.6435 27.5422 86.3815 29.6702C86.2162 31.0103 85.9665 32.3469 85.6447 33.6588C85.4706 34.3711 84.9149 34.8618 84.1465 34.9849C83.6875 35.0587 83.3464 34.86 83.1917 34.4309C83.0615 34.0686 82.9402 33.6905 82.9085 33.3106C82.7573 31.4412 82.8189 29.577 83.0668 27.7163C83.1934 26.7702 83.2761 25.8187 83.3851 24.869C83.4607 24.2095 83.5609 23.5518 83.6225 22.8905C83.6717 22.3559 83.5504 22.231 83.0387 22.129C81.9818 21.918 80.9233 21.7105 79.87 21.4783C79.1543 21.32 78.5969 21.5733 78.1133 22.0657C77.4697 22.7217 76.7575 23.2897 75.9135 23.6591C74.8936 24.104 73.8121 24.0108 72.7641 23.8437C71.2501 23.6028 70.042 22.8061 69.1822 21.5293C68.9149 21.1336 68.7215 20.6869 68.5122 20.2543C68.3944 20.0116 68.2906 19.9184 68.0058 20.0626C66.9999 20.5744 65.9976 21.1002 64.9601 21.5399C63.8031 22.0288 62.5757 22.2011 61.3466 21.8582C60.1491 21.524 59.2294 20.752 58.4662 19.7882C58.2605 19.5332 58.06 19.273 57.7418 18.8667ZM92.2511 14.0726C92.2371 13.9073 92.2371 13.7402 92.2107 13.5766C92.0577 12.6322 91.1099 12.2101 90.345 12.7782C90.0003 13.035 89.6856 13.3744 89.4499 13.7349C88.6622 14.9414 88.307 16.3237 87.9518 17.6989C87.8621 18.0436 87.8005 18.4094 87.8076 18.7629C87.8216 19.4224 88.2085 19.6177 88.7624 19.2606C89.9106 18.5202 90.76 17.4932 91.4774 16.3518C91.9135 15.6589 92.2705 14.9273 92.2511 14.0726ZM47.221 14.7373C47.2316 14.0814 47.0786 13.4746 46.595 13.0015C46.3277 12.7395 45.9919 12.6269 45.6085 12.7465C45.1425 12.8907 44.8911 13.2372 44.8559 13.8105C44.7873 14.922 45.2656 15.877 45.7562 16.8179C46.0095 17.3015 46.2504 17.2874 46.5757 16.839C47.0329 16.2129 47.2105 15.5024 47.221 14.7373ZM35.8914 14.5263C35.7701 14.1236 35.6892 13.7033 35.5168 13.3251C35.2953 12.8433 34.7238 12.6269 34.2191 12.7588C33.6845 12.8995 33.4735 13.1545 33.528 13.8123C33.5773 14.3856 33.7092 14.9572 33.8604 15.5129C33.9729 15.9227 34.1453 16.3237 34.3475 16.6965C34.6218 17.1977 34.9084 17.203 35.1775 16.7176C35.5503 16.0476 35.8386 15.3441 35.8914 14.5263Z" fill="#FE5504"/>
</svg>
