<svg width="225" height="32" viewBox="0 0 225 32" fill="none" xmlns="http://www.w3.org/2000/svg">
<path d="M13.1898 0.00134487C12.9793 0.013728 12.7688 0.0632604 12.5707 0.193283C13.3942 0.360455 14.3539 0.465712 14.8739 1.21489C15.134 1.49351 15.0535 1.91454 14.7935 2.15601C14.3043 2.74421 13.4561 2.92376 12.7379 2.73801C10.2922 2.1622 7.98274 1.03534 5.46897 0.744332C4.1254 0.564777 2.8066 1.21489 1.87786 2.14982C1.02343 3.01044 0.707657 4.31686 0.881021 5.49326C1.07296 6.42818 1.76022 7.39407 2.76325 7.53028C2.16887 6.88636 2.05742 5.77188 2.67038 5.10319C3.01711 4.66978 3.63626 4.61406 4.15016 4.69455C6.1005 5.05366 7.99512 5.64185 9.93927 6.03811C11.029 6.33531 12.1001 6.68823 13.2146 6.88636C13.2332 8.21754 13.2332 9.54254 13.2146 10.8675C12.4964 11.4062 11.8153 11.982 11.1095 12.5331C11.7967 13.047 12.5026 13.5237 13.2084 14.0067C13.2518 15.8827 13.2022 17.7649 13.2332 19.641C12.0754 20.5387 10.5213 20.6811 9.1096 20.514C7.61125 20.4335 6.28006 19.5357 5.30179 18.4522C6.94875 17.573 8.62047 16.7495 10.3046 15.9446C10.3665 12.985 10.317 10.0193 10.3293 7.05353C8.22421 7.93273 6.14385 8.86147 4.0511 9.75924C4.65787 8.21135 5.88999 6.95447 7.35739 6.21148C6.97351 6.23624 6.57106 6.20529 6.21195 6.37246C3.4629 7.45598 1.19679 9.7902 0.342355 12.6383C-0.227268 14.4463 -0.0415214 16.4275 0.571443 18.1921C1.3392 20.1611 2.75706 21.9009 4.6393 22.8977C5.69805 23.4426 6.83111 23.9565 8.04466 23.9689C10.5522 24.1794 13.1898 23.2321 14.8801 21.3436C15.6169 20.5511 15.9884 19.5171 16.3599 18.5203C16.7005 17.5358 16.8552 16.4895 16.8181 15.4431C16.007 17.0529 14.9297 18.5636 13.4561 19.6348C13.4685 17.7649 13.4499 15.8889 13.4623 14.019C14.1 13.5299 14.7439 13.0408 15.3693 12.5269C14.7315 11.9634 14.1 11.4 13.4623 10.8366C13.4623 9.51777 13.4623 8.19897 13.4623 6.88636C14.8925 6.81206 16.5457 6.05669 16.9295 4.55214C17.1958 3.57387 17.3382 2.40986 16.7376 1.51828C16.1866 0.886738 15.4683 0.341881 14.6263 0.187092C14.1495 0.162325 13.6542 -0.0172298 13.1898 0.00134487ZM6.48438 9.02864C6.47819 11.8829 6.50296 14.7373 6.472 17.5854C5.99525 17.7711 5.52469 17.9754 5.06032 18.186C4.1935 16.9353 3.66103 15.4617 3.41337 13.9695C3.34526 12.7064 3.58054 11.431 4.02014 10.2484C4.84362 9.85831 5.65471 9.43109 6.48438 9.02864Z" fill="#FE5504"/>
<path d="M170.858 0.00154273C170.629 -0.00464883 170.4 0.0386921 170.189 0.193481C170.672 0.304929 171.186 0.354462 171.638 0.577358C172.04 0.769296 172.307 1.17175 172.449 1.58658C172.523 2.03237 172.195 2.44721 171.805 2.61438C171.099 2.94253 170.301 2.78774 169.582 2.59581C167.861 2.06952 166.183 1.38845 164.425 0.973617C163.521 0.781679 162.574 0.602124 161.663 0.837403C160.673 1.11602 159.67 1.58658 159.088 2.47197C158.332 3.44405 158.239 4.78143 158.605 5.92686C158.908 6.68843 159.521 7.4376 160.388 7.53667C160.103 7.17137 159.62 6.80607 159.756 6.28598C159.837 5.77208 160.047 5.25198 160.462 4.91764C160.877 4.60806 161.441 4.60806 161.917 4.75047C163.669 5.07862 165.378 5.56775 167.112 5.9764C168.288 6.22406 169.415 6.66366 170.592 6.88036C170.61 8.20536 170.598 9.52416 170.604 10.8492C169.966 11.4126 169.335 11.9698 168.709 12.5394C169.341 13.0286 169.96 13.5301 170.604 14.0068C170.616 15.8891 170.598 17.7775 170.616 19.6597C169.502 20.4956 168.041 20.6999 166.691 20.508C165.199 20.4213 163.899 19.5235 162.908 18.4648C163.31 18.18 163.775 18.0004 164.214 17.7713C165.446 17.1645 166.66 16.533 167.898 15.9448C167.935 12.9791 167.905 10.0133 167.917 7.04754C165.83 7.93912 163.756 8.86785 161.657 9.74086C162.134 8.60162 162.902 7.56144 163.93 6.86798C164.239 6.58936 164.549 6.29217 164.97 6.1931C164.549 6.22406 164.109 6.20548 163.725 6.40361C160.772 7.59859 158.252 10.2052 157.695 13.4063C157.484 15.0346 157.633 16.7188 158.202 18.2604C158.933 20.0684 160.215 21.6782 161.88 22.6998C162.679 23.1827 163.533 23.579 164.431 23.8452C166.573 24.2043 168.87 23.8948 170.746 22.7555C171.985 21.8949 173.13 20.7742 173.65 19.3254C174.208 18.0933 174.43 16.7497 174.455 15.4061C174.195 15.7467 174.047 16.1429 173.824 16.5082C173.112 17.7032 172.189 18.7867 171.068 19.6164C171.081 17.7404 171.05 15.8643 171.087 13.9821C171.725 13.5239 172.319 13.01 172.957 12.558C172.369 11.9451 171.7 11.4188 171.075 10.8492C171.062 9.53035 171.087 8.21774 171.062 6.89894C172.294 6.81845 173.539 6.2674 174.201 5.18388C174.889 4.07559 174.889 2.55866 174.22 1.44418C173.694 0.750721 172.876 0.304929 172.022 0.181098C171.638 0.168715 171.242 0.0139258 170.858 0.00154273ZM164.097 9.02884C164.115 11.877 164.097 14.7251 164.103 17.5732C163.62 17.7775 163.137 17.988 162.654 18.1985C161.954 17.2079 161.403 16.0996 161.125 14.917C160.815 13.3691 160.896 11.6912 161.614 10.2671C162.45 9.8585 163.273 9.44367 164.097 9.02884Z" fill="#FE5504"/>
<path d="M64.0163 0.948486C64.8212 2.35397 64.3135 4.25478 63.1124 5.27019C62.3694 5.75314 61.515 6.01937 60.6791 6.2918C60.6977 12.0376 60.6791 17.7833 60.6853 23.5291C60.7472 23.7891 60.5057 23.9997 60.2581 23.8944C59.7689 23.8696 59.6389 23.3557 59.4346 23.009C56.4255 17.4799 53.4535 11.9323 50.4259 6.41563C50.3702 10.4711 50.4259 14.5328 50.3949 18.5944C51.8252 18.8669 53.2183 19.5541 54.1594 20.6934C54.5928 20.359 54.8776 19.7646 55.4348 19.6284C55.2924 19.8885 55.0881 20.099 54.89 20.3095C53.8065 21.5107 52.7291 22.7118 51.6456 23.913C51.1441 23.2814 50.4754 22.6809 49.6395 22.5942C49.0885 22.5756 48.4508 22.6004 48.0545 23.0338C47.5901 23.4486 47.2806 24.1421 47.6149 24.7303C47.9988 25.5723 48.9709 25.8014 49.7881 26.0057C48.7665 26.21 47.6211 26.0862 46.7976 25.4051C46.1413 24.8417 45.5469 24.1297 45.3736 23.2629C45.1445 22.0679 45.5036 20.7367 46.3952 19.8823C47.3734 18.9164 48.8099 18.5511 50.1534 18.6316C50.1906 16.8608 50.172 15.0962 50.1596 13.3254C49.5095 13.2202 48.6179 13.313 48.3146 13.9941C48.1412 14.5451 48.5498 15.0157 48.9647 15.3129C48.457 15.2262 47.8935 15.1272 47.522 14.7309C47.0886 14.1984 46.7543 13.5669 46.6243 12.8858C46.5004 12.0128 46.7295 11.0098 47.4601 10.4463C48.2217 9.85814 49.2371 9.77765 50.172 9.79622C50.172 8.55172 50.172 7.30102 50.172 6.05652C49.8315 5.54881 49.5095 4.96681 48.9275 4.70676C48.5498 4.55197 48.0545 4.49006 47.7264 4.78725C47.2744 5.17113 47.1629 5.7779 46.9834 6.31657C46.81 5.01015 46.94 3.53656 47.8564 2.50876C48.9585 1.07851 51.2927 1.02898 52.5 2.34778C53.0201 2.88644 53.3792 3.54894 53.7384 4.19905C55.9735 8.17403 58.1591 12.18 60.4191 16.1426C60.4314 12.8549 60.4376 9.56713 60.4191 6.27942C60.029 6.13082 59.6018 6.13082 59.2055 5.99461C58.4687 5.80267 57.8557 5.32592 57.3171 4.81202C56.9765 5.20828 56.636 5.60454 56.3202 6.02556C56.2459 5.98222 56.0973 5.90792 56.023 5.86458C57.1809 4.40338 58.4192 3.01028 59.6265 1.59241C60.2581 2.25491 61.0815 2.79976 62.0227 2.86168C62.9824 2.7688 63.9482 1.98248 64.0163 0.948486Z" fill="#FE5504"/>
<path d="M139.139 4.13108C140.755 3.07852 142.364 2.01976 143.987 0.973389C143.999 7.18352 143.974 13.3937 143.999 19.6038C144.352 20.0805 144.829 20.4706 145.25 20.8916C145.516 20.6068 145.794 20.3344 146.067 20.0558C146.129 20.1177 146.259 20.2477 146.327 20.3158C145.033 21.4365 143.782 22.6005 142.482 23.7088C141.665 22.8667 140.816 22.0556 139.999 21.2136C139.634 21.5356 139.3 21.8947 138.959 22.2414C138.891 22.1857 138.748 22.0804 138.68 22.0247C139.3 21.4303 139.968 20.8854 140.594 20.2972C140.587 15.5917 140.6 10.8861 140.587 6.18049C140.569 5.2951 140.123 4.24253 139.139 4.13108Z" fill="#FE5504"/>
<path d="M18.5517 4.31694C19.9448 3.28295 21.307 2.20562 22.6939 1.17163C22.7001 4.59556 22.6939 8.0133 22.7001 11.4372C23.8765 10.4652 25.0653 9.50547 26.2293 8.52101C27.1642 9.49309 28.0372 10.5209 29.0031 11.462C29.4117 11.171 29.8266 10.8924 30.2538 10.6323C30.1795 11.1772 29.5294 11.3629 29.195 11.7406C29.2012 13.6105 29.195 15.4803 29.195 17.3502C29.2198 18.7495 29.0217 20.1364 28.9783 21.5357C28.9164 23.0526 28.3282 24.6005 27.1456 25.5973C26.1859 26.458 24.8733 26.7675 23.6164 26.8666C23.5979 26.8976 23.5483 26.9595 23.5236 26.9904L23.5545 26.879C23.1211 26.879 22.6939 26.8604 22.2605 26.8294C22.7991 26.5508 23.4121 26.3713 23.8393 25.9069C24.3285 25.3621 24.8981 24.842 25.1396 24.1237C25.5358 23.034 25.5482 21.8576 25.5853 20.7122C25.573 18.1489 25.5977 15.5856 25.573 13.0223C25.0033 12.2793 24.3161 11.623 23.7155 10.9048C23.3873 11.2577 22.9849 11.5549 22.7063 11.9511C22.6815 14.5949 22.7063 17.2449 22.6939 19.8887C23.0344 20.2292 23.3812 20.576 23.7217 20.9165C24.0003 20.6379 24.2789 20.3593 24.5514 20.0807C24.6133 20.1426 24.7371 20.2602 24.799 20.3221C23.4555 21.3747 22.1181 22.4458 20.7745 23.4922C19.9201 22.7368 19.0904 21.9567 18.2545 21.1889C17.9759 21.3995 17.6911 21.61 17.4125 21.8205C17.3506 21.7586 17.2329 21.6285 17.171 21.5666C17.8149 21.1518 18.4527 20.7184 19.0904 20.2912C19.0904 15.5856 19.0904 10.8862 19.0904 6.1806C19.078 5.82149 19.0966 5.43142 18.9047 5.11565C18.7808 4.86799 18.496 4.79369 18.2855 4.6451C18.2484 4.47792 18.4712 4.41601 18.5517 4.31694Z" fill="#FE5504"/>
<path d="M111.239 1.82178C109.976 2.84338 108.738 3.90214 107.487 4.94232C107.475 3.96406 107.506 2.98579 107.469 2.00752C107.277 1.99514 107.19 2.08801 107.215 2.26757C107.209 9.18973 107.215 16.1181 107.209 23.0402C106.528 22.9102 105.84 22.774 105.165 22.6192C105.153 16.7806 105.165 10.9419 105.159 5.09711C105.147 4.36032 104.905 3.61733 104.416 3.0539C103.809 2.33568 102.862 2.00133 101.952 1.93942C100.869 1.90846 99.8778 2.47808 99.1163 3.20869C98.4228 3.87118 98.0451 4.89279 98.2433 5.8401C98.33 5.2519 98.5219 4.5894 99.0606 4.26125C99.655 4.0074 100.447 4.21172 100.8 4.76896C101.104 5.22094 101.135 5.77818 101.147 6.30447C101.147 7.88331 101.147 9.46216 101.147 11.041C100.107 11.0596 98.8748 11.2268 98.2742 12.1926C97.6675 12.948 97.4817 14.0191 97.8966 14.9107C98.169 15.7899 99.0853 16.2419 99.9336 16.3843C99.4568 16.0747 98.9739 15.5361 99.2525 14.9293C99.6302 14.3225 100.491 14.2359 101.129 14.4092C101.153 17.214 101.141 20.0126 101.135 22.8112C100.181 23.1455 99.2463 23.7213 98.7386 24.6253C98.3671 25.2692 98.3547 26.037 98.3857 26.7552C98.4971 28.0183 99.333 29.1699 100.454 29.7457C101.296 30.142 102.249 30.1544 103.166 30.1234C105.76 29.9686 108.23 28.9408 110.831 28.8541C111.605 28.7984 112.063 29.6528 111.859 30.3215C111.704 30.9283 111.196 31.3369 110.713 31.696C111.629 31.5041 112.54 31.1574 113.252 30.5382C114.057 29.8572 114.428 28.7551 114.372 27.7211C114.31 26.6995 113.487 25.9379 112.632 25.4983C111.506 24.8358 110.137 24.9844 108.899 25.1206C106.565 25.3869 104.292 26.1298 101.933 26.1918C101.135 26.2475 100.386 25.6779 100.231 24.8977C100.051 24.1423 100.664 23.4799 101.283 23.1579C102.627 22.5264 104.175 22.7616 105.574 23.0526C107.196 23.2198 108.719 23.8823 110.348 24.0495C111.27 24.1547 112.249 23.9752 113.01 23.4179C113.79 22.935 114.143 22.0001 114.162 21.1147C114.174 15.6042 114.149 10.0937 114.174 4.57702C114.676 4.13742 115.233 3.74735 115.673 3.23964C115.06 3.39443 114.676 3.96406 114.174 4.31698C113.196 3.50588 112.224 2.65764 111.239 1.82178ZM108.49 4.60798C109.054 5.09092 109.611 5.58624 110.174 6.07538C110.174 7.80901 110.168 9.54884 110.174 11.2825C109.908 11.5487 109.611 11.8273 109.221 11.8769C108.583 12.0131 107.964 11.6973 107.481 11.3011C107.481 9.27641 107.481 7.24558 107.481 5.22094C107.822 5.01662 108.156 4.8123 108.49 4.60798ZM107.481 11.7778C108.305 12.1988 109.37 12.3227 110.174 11.784C110.174 12.5703 110.174 13.3628 110.174 14.1492C109.846 13.8334 109.431 13.5795 108.961 13.5795C108.41 13.5672 107.908 13.8272 107.481 14.1492C107.487 13.3567 107.481 12.5703 107.481 11.7778ZM108.955 13.8272C109.487 13.8396 109.896 14.2359 110.174 14.6569C110.168 16.8549 110.174 19.0529 110.174 21.2509C110.218 21.9258 109.753 22.5016 109.246 22.8917C108.757 23.2817 108.094 23.2941 107.493 23.2631C107.463 20.3903 107.493 17.5174 107.481 14.6445C107.871 14.2235 108.354 13.821 108.955 13.8272Z" fill="#FE5504"/>
<path d="M175.211 5.40054C176.084 4.63897 176.901 3.8155 177.792 3.07251C178.548 3.86503 179.34 4.62659 180.108 5.40673C179.192 6.26735 178.263 7.12179 177.334 7.96384C176.628 7.10941 175.904 6.26735 175.211 5.40054Z" fill="#FE5504"/>
<path d="M74.5606 6.21759C75.1054 5.8461 75.7927 5.86467 76.4242 5.78418C75.9475 6.16186 75.4212 6.59527 75.3593 7.24539C75.254 7.8212 75.6193 8.34748 76.0465 8.69421C76.8205 9.31337 77.8173 9.66009 78.4551 10.4588C78.7584 10.8427 78.9442 11.3318 78.9318 11.8271C78.9256 14.44 78.9318 17.0466 78.9256 19.6595C79.6191 20.2229 80.3187 20.7739 81.0122 21.3374C81.2165 21.2074 81.4146 21.0773 81.6189 20.9473C81.6066 18.0992 81.6313 15.2511 81.6066 12.403C81.2474 11.9819 80.7583 11.6785 80.3497 11.3071C81.3527 10.3845 82.331 9.4372 83.3526 8.53942C84.238 9.41243 85.1729 10.2359 86.0831 11.0842C85.7363 11.4495 85.3834 11.8024 85.0181 12.1553C85.0119 14.6567 85.0181 17.1643 85.0119 19.6657C85.9221 20.3715 86.8322 21.0773 87.7486 21.7708C87.8786 21.6965 88.0086 21.6222 88.1387 21.5479C88.1263 18.4893 88.1387 15.4306 88.1325 12.372C87.7114 12.0129 87.278 11.6724 86.857 11.3009C87.8415 10.3721 88.8321 9.46196 89.8228 8.53942C90.8072 9.30718 91.7917 10.0811 92.7699 10.8551C93.1105 10.4836 93.4572 10.1121 93.8411 9.78393C93.8906 9.85823 93.9959 10.0006 94.0454 10.0687C93.2095 10.8117 92.3737 11.5671 91.5626 12.341C91.4945 14.7805 91.5626 17.2262 91.5316 19.6657C89.4017 21.0649 87.179 22.3404 85.0181 23.7025C83.8789 22.8853 82.7706 22.0246 81.6437 21.1888C80.6345 21.9999 79.6253 22.811 78.6099 23.6159C78.4674 23.7768 78.3127 23.5416 78.195 23.4735C77.2477 22.7119 76.3004 21.938 75.3407 21.195C74.9383 21.5479 74.511 21.876 74.1086 22.229C74.0467 22.167 73.9166 22.0432 73.8547 21.9813C74.3501 21.6408 74.833 21.2817 75.3283 20.9411C75.3283 18.5759 75.3283 16.2108 75.3283 13.8518C75.3283 13.2202 75.1054 12.5763 74.672 12.112C74.1953 11.5981 73.5575 11.2328 73.1798 10.6322C72.7588 9.93252 72.7217 9.05951 72.8827 8.27319C73.1117 7.3816 73.8114 6.70672 74.5606 6.21759Z" fill="#FE5504"/>
<path d="M224.334 7.90796C224.433 8.15562 224.464 8.43424 224.341 8.67571C224.043 9.35678 223.232 9.61683 222.545 9.60445C221.827 9.54253 221.263 9.02244 220.774 8.53331C219.957 9.07816 219.14 9.62302 218.322 10.1679C217.381 10.7994 216.347 11.27 215.307 11.7034C215.301 13.0408 215.307 14.3781 215.301 15.7155C216.062 16.3471 216.843 16.9538 217.586 17.6039C217.016 18.2107 216.453 18.8237 215.908 19.4552C215.35 20.1239 214.83 20.8917 214.799 21.7894C214.768 22.811 215.202 23.9131 216.106 24.4518C216.502 24.6871 216.991 24.8976 217.449 24.7119C216.874 24.5075 216.168 24.0865 216.217 23.3869C216.378 22.7244 217.165 22.2786 217.821 22.4705C218.502 22.6624 219.059 23.1516 219.499 23.6964C221.245 22.4395 223.084 21.3127 224.997 20.322C224.984 18.6255 225.022 16.9229 224.978 15.2264C224.136 14.632 223.331 13.9881 222.495 13.3875C223.381 12.2668 224.266 11.0842 224.638 9.68494C224.78 9.09674 224.824 8.35375 224.334 7.90796ZM218.706 10.4527C219.276 11.2638 220.025 12.0563 221.053 12.2235C222.074 12.4649 223.071 11.9077 223.74 11.1709C222.824 12.8736 221.393 14.2357 219.92 15.4555C219.524 15.0344 219.09 14.6382 218.7 14.211C218.719 12.9603 218.706 11.7034 218.706 10.4527ZM220.155 15.5236C220.595 15.8951 221.034 16.2728 221.474 16.6442C221.678 16.7681 221.579 17.0157 221.604 17.2077C221.592 18.6627 221.622 20.1301 221.585 21.5851C221.257 20.8421 220.762 20.1487 220.062 19.7029C219.053 19.0404 217.66 19.0032 216.632 19.6472C216.162 19.9072 215.784 20.2973 215.425 20.6935C215.932 19.6967 216.762 18.9104 217.536 18.124C218.428 17.2758 219.313 16.4214 220.155 15.5236Z" fill="#FE5504"/>
<path d="M38.4328 8.5332C37.2688 9.20808 36.1481 9.93869 35.0089 10.6507C34.043 11.1522 33.0647 11.629 32.0927 12.1181C32.0989 14.8424 32.0865 17.5667 32.0989 20.291C31.684 20.6129 31.2011 20.842 30.8234 21.2135C30.8977 21.2569 31.0401 21.3435 31.1144 21.3869C31.4426 21.1083 31.7645 20.8173 32.1174 20.582C33.3248 21.585 34.4578 22.6685 35.659 23.6716C35.7209 23.6406 35.8386 23.5787 35.9005 23.5477C37.9375 21.9689 39.9931 20.4148 42.0239 18.8421L41.7701 18.6193C40.637 19.5046 39.5349 20.4334 38.4142 21.325C37.4855 20.4891 36.5877 19.6223 35.6652 18.7864C35.3494 18.5573 35.529 18.1177 35.5042 17.7958C37.405 16.4027 39.2996 15.0158 41.1757 13.5855C40.2408 11.9076 39.3368 10.2235 38.4328 8.5332ZM35.498 10.5393C36.4577 12.1181 37.4236 13.6908 38.3771 15.2758C37.4112 15.9569 36.4515 16.6441 35.498 17.3376C35.4856 15.0715 35.4794 12.8054 35.498 10.5393Z" fill="#FE5504"/>
<path d="M69.8983 8.5271C69.081 9.06577 68.2514 9.59824 67.4155 10.1059C66.1896 10.8737 64.8584 11.4495 63.5767 12.112C63.5829 14.8363 63.5705 17.5606 63.5829 20.2849C63.1867 20.5821 62.7471 20.8112 62.3632 21.1207C62.4065 21.195 62.487 21.3374 62.5304 21.4055C62.9576 21.1207 63.3786 20.8235 63.8182 20.5573C64.9203 21.6099 66.041 22.65 67.1493 23.6902C69.2234 22.1485 71.2605 20.5511 73.3223 18.9785C73.5885 18.9227 73.3718 18.4955 73.1984 18.6627C72.0839 19.5295 71.0004 20.4335 69.9045 21.3189C69.0439 20.4644 68.1895 19.6038 67.3288 18.7494C67.0502 18.5079 67.2174 18.0993 67.1988 17.7835C69.0253 16.4275 70.7961 14.9911 72.6288 13.6413C71.7867 11.9077 70.7961 10.236 69.8983 8.5271ZM67.174 10.5951C68.1152 12.1306 68.982 13.7156 69.8488 15.2945C68.951 15.9508 68.0842 16.6504 67.1926 17.3191C67.1555 15.0778 67.1926 12.8364 67.174 10.5951Z" fill="#FE5504"/>
<path d="M122.985 8.5332C122.087 9.05949 121.202 9.59815 120.329 10.1616C119.307 10.7869 118.186 11.2265 117.097 11.7219C117.121 14.5824 117.103 17.4367 117.109 20.2972C116.744 20.6625 116.378 21.0216 116.019 21.3931C116.094 21.3869 116.242 21.3807 116.316 21.3745C116.576 21.0959 116.843 20.8296 117.109 20.5634C118.335 21.5664 119.536 22.588 120.75 23.5973C120.948 23.7892 121.177 23.5044 121.375 23.4301C123.331 22.359 125.177 21.1021 127.189 20.1424C127.22 17.48 127.201 14.8176 127.201 12.1491C127.566 11.7838 127.932 11.4247 128.291 11.0532C128.217 11.0532 128.08 11.0594 128.006 11.0656C127.666 11.3442 127.325 11.6166 126.984 11.889C125.647 10.7745 124.316 9.64768 122.985 8.5332ZM120.706 10.5083C121.666 11.4123 122.644 12.3039 123.604 13.2078C123.592 16.0436 123.598 18.8793 123.598 21.715C122.613 20.8482 121.678 19.9319 120.706 19.0589V10.5083Z" fill="#FE5504"/>
<path d="M144.154 14.8859C145.541 12.756 146.958 10.6509 148.376 8.54574C148.989 9.06583 149.757 9.39399 150.556 9.47448C151.342 9.47448 152.011 9.01011 152.605 8.53955C152.457 9.68499 152.073 10.88 151.194 11.6787C150.426 12.3845 149.262 12.5517 148.29 12.2111C147.72 12.0192 147.194 11.7158 146.717 11.3381C146.637 11.5363 146.562 11.7406 146.513 11.9449C148.482 14.9107 150.413 17.9012 152.345 20.8855C152.791 20.5945 153.181 20.2354 153.571 19.8825C153.645 19.932 153.8 20.0249 153.874 20.0744C152.481 21.3127 151.051 22.5015 149.627 23.7027C147.794 20.7679 146.005 17.8083 144.154 14.8859Z" fill="#FE5504"/>
<path d="M210.713 8.5332C209.859 9.05329 208.998 9.57338 208.15 10.1121C206.979 10.9231 205.642 11.4309 204.398 12.1181C204.41 14.8424 204.398 17.5667 204.404 20.291C203.977 20.5758 203.555 20.8606 203.128 21.1392C203.184 21.2073 203.295 21.3435 203.351 21.4116C203.723 21.1392 204.051 20.8111 204.453 20.5758C205.562 21.6098 206.726 22.5818 207.852 23.5973C207.958 23.7706 208.119 23.5911 208.224 23.523C210.255 21.9565 212.286 20.4024 214.323 18.8483C214.087 18.4335 213.815 18.836 213.573 19.0093C212.62 19.7833 211.666 20.5634 210.713 21.3312C209.735 20.4396 208.787 19.5108 207.791 18.644C207.778 18.3654 207.772 18.0806 207.784 17.802C209.691 16.4212 211.574 15.0096 213.462 13.6103C212.552 11.9138 211.635 10.2173 210.713 8.5332ZM207.772 10.5888C208.8 12.1119 209.704 13.7217 210.67 15.2882C209.691 15.9569 208.738 16.6689 207.766 17.35C207.784 15.0901 207.772 12.8363 207.772 10.5888Z" fill="#FE5504"/>
<path d="M132.179 8.75612C132.947 9.45577 133.597 10.2854 134.309 11.0408C135.089 10.2978 135.845 9.53007 136.6 8.75612C137.145 9.10904 137.714 9.59817 138.414 9.45577C138.909 9.42481 139.163 8.93568 139.584 8.73755C139.584 9.76535 139.349 10.8489 138.668 11.6476C137.888 12.5825 136.414 12.8549 135.368 12.2172C134.965 12.0191 134.699 11.6476 134.328 11.4185C134.34 14.2357 134.334 17.0466 134.328 19.8638C134.885 20.291 135.436 20.7182 136.006 21.1207C136.42 20.8482 136.736 20.3467 137.262 20.3034C136.03 21.4736 134.743 22.5881 133.461 23.7025C132.495 22.7924 131.511 21.907 130.557 20.9906C130.186 21.325 129.845 21.6903 129.486 22.037C129.43 21.9689 129.319 21.8389 129.257 21.777C129.721 21.2569 130.247 20.7863 130.724 20.2786C130.706 17.8701 130.737 15.4616 130.712 13.0531C130.458 12.4463 130.012 11.92 129.69 11.338C129.251 11.598 128.929 12.1367 128.384 12.1553C129.641 11.0037 130.941 9.91394 132.179 8.75612Z" fill="#FE5504"/>
<path d="M182.114 11.7652C183.26 10.7622 184.38 9.73439 185.532 8.73755C186.355 9.64771 187.21 10.5331 188.027 11.4556C189.241 10.5764 190.411 9.62913 191.618 8.73755C192.46 9.64152 193.29 10.5641 194.144 11.4556C195.339 10.5517 196.516 9.62913 197.717 8.73755C198.54 9.6539 199.382 10.5455 200.212 11.4495C200.72 11.1275 201.19 10.7374 201.704 10.4278C201.741 10.7312 201.469 10.8674 201.277 11.0346C200.998 11.2575 200.732 11.4928 200.454 11.7157C200.429 14.2233 200.46 16.7247 200.441 19.2322C200.918 19.7276 201.407 20.2167 201.902 20.6934C202.162 20.421 202.435 20.1548 202.689 19.87C202.763 19.9195 202.918 20.0124 202.998 20.0619C201.741 21.3002 200.447 22.4952 199.159 23.6964C198.249 22.6252 197.296 21.585 196.41 20.4953C196.627 20.2972 196.838 20.0929 197.042 19.8824C197.042 17.7215 197.042 15.5606 197.042 13.3998C196.355 12.632 195.674 11.8643 194.962 11.1213C194.757 11.3318 194.553 11.5361 194.349 11.7466C194.349 14.4462 194.361 17.1519 194.342 19.8514C194.683 20.2353 195.067 20.5758 195.414 20.9535C194.485 21.777 193.587 22.6438 192.665 23.4735C191.798 22.5633 190.949 21.6408 190.114 20.712C190.349 20.421 190.832 20.2043 190.751 19.7585C190.739 17.6534 190.764 15.5421 190.739 13.4369C190.163 12.632 189.519 11.8581 188.851 11.1275C188.652 11.3318 188.46 11.5361 188.256 11.7405C188.262 14.3595 188.244 16.9785 188.269 19.5914C188.553 20.0743 188.974 20.4644 189.321 20.904C188.417 21.8513 187.488 22.7738 186.547 23.684C185.65 22.6128 184.715 21.5727 183.811 20.5077C184.095 20.291 184.38 20.0743 184.665 19.8514C184.659 17.641 184.646 15.4306 184.671 13.214C184.139 12.5577 183.557 11.9448 183 11.307C182.603 11.598 182.257 11.9695 181.805 12.1739C181.786 11.9881 181.984 11.8891 182.114 11.7652Z" fill="#FE5504"/>
<path d="M174.152 11.9386C175.334 10.8551 176.56 9.80869 177.761 8.73755C178.616 9.70343 179.439 10.6941 180.288 11.6723C180.727 11.3256 181.123 10.917 181.606 10.6322C181.569 10.787 181.526 10.9479 181.384 11.0346C181.018 11.338 180.659 11.6414 180.288 11.9386C180.294 14.4462 180.275 16.9599 180.294 19.4675C180.771 20.0062 181.266 20.5387 181.718 21.1083C182.089 20.8792 182.399 20.5696 182.758 20.3158C182.832 20.3591 182.987 20.4334 183.061 20.4767C181.879 21.585 180.653 22.65 179.421 23.7025C178.604 22.7181 177.761 21.746 176.919 20.7801C176.554 21.1083 176.251 21.5107 175.848 21.8017C175.793 21.7522 175.681 21.6408 175.619 21.585C175.972 21.2507 176.306 20.8916 176.672 20.5572C176.703 18.2787 176.672 15.9941 176.684 13.7156C176.666 13.3998 176.765 13.0221 176.517 12.7683C176.077 12.2234 175.675 11.6476 175.211 11.1275C174.864 11.4061 174.536 11.7157 174.152 11.9386Z" fill="#FE5504"/>
</svg>
