<svg width="129" height="40" viewBox="0 0 129 40" fill="none" xmlns="http://www.w3.org/2000/svg">
<path d="M67.9875 10.05C67.9875 11.4915 66.8189 12.6527 65.3681 12.6527C63.9173 12.6527 62.7487 11.4915 62.7487 10.05C62.7487 8.60861 63.877 7.44745 65.3681 7.44745C66.8592 7.48749 67.9875 8.64865 67.9875 10.05ZM57.1874 15.2953V15.9359C57.1874 15.9359 55.9382 14.3343 53.2784 14.3343C48.8859 14.3343 45.4605 17.6577 45.4605 22.2623C45.4605 26.8268 48.8456 30.1902 53.2784 30.1902C55.9785 30.1902 57.1874 28.5485 57.1874 28.5485V29.2292C57.1874 29.5495 57.4292 29.7898 57.7516 29.7898H61.0158V14.7347H57.7516C57.4292 14.7347 57.1874 15.015 57.1874 15.2953ZM57.1874 24.9449C56.5829 25.8258 55.374 26.5866 53.9232 26.5866C51.3441 26.5866 49.3695 24.985 49.3695 22.2623C49.3695 19.5395 51.3441 17.9379 53.9232 17.9379C55.3337 17.9379 56.6232 18.7387 57.1874 19.5796V24.9449ZM63.4338 14.7347H67.3024V29.7898H63.4338V14.7347ZM121.222 14.3343C118.563 14.3343 117.313 15.9359 117.313 15.9359V7.48749H113.445V29.7898H116.709C117.031 29.7898 117.273 29.5095 117.273 29.2292V28.5485C117.273 28.5485 118.522 30.1902 121.182 30.1902C125.575 30.1902 129 26.8268 129 22.2623C129 17.6977 125.575 14.3343 121.222 14.3343ZM120.578 26.5465C119.086 26.5465 117.918 25.7858 117.313 24.9049V19.5395C117.918 18.7387 119.207 17.8979 120.578 17.8979C123.157 17.8979 125.131 19.4995 125.131 22.2222C125.131 24.9449 123.157 26.5465 120.578 26.5465ZM111.43 20.8609V29.8298H107.561V21.3013C107.561 18.8188 106.755 17.8178 104.579 17.8178C103.41 17.8178 102.201 18.4184 101.436 19.2993V29.7898H97.5669V14.7347H100.63C100.952 14.7347 101.194 15.015 101.194 15.2953V15.9359C102.322 14.7748 103.813 14.3343 105.304 14.3343C106.997 14.3343 108.407 14.8148 109.536 15.7758C110.906 16.8969 111.43 18.3383 111.43 20.8609ZM88.1773 14.3343C85.5175 14.3343 84.2683 15.9359 84.2683 15.9359V7.48749H80.3996V29.7898H83.6638C83.9862 29.7898 84.228 29.5095 84.228 29.2292V28.5485C84.228 28.5485 85.4772 30.1902 88.137 30.1902C92.5295 30.1902 95.9549 26.8268 95.9549 22.2623C95.9952 17.6977 92.5698 14.3343 88.1773 14.3343ZM87.5325 26.5465C86.0414 26.5465 84.8727 25.7858 84.2683 24.9049V19.5395C84.8727 18.7387 86.1623 17.8979 87.5325 17.8979C90.1116 17.8979 92.0862 19.4995 92.0862 22.2222C92.0862 24.9449 90.1116 26.5465 87.5325 26.5465ZM77.0548 14.3343C78.2234 14.3343 78.8279 14.5345 78.8279 14.5345V18.0981C78.8279 18.0981 75.604 17.017 73.5891 19.2993V29.8298H69.7204V14.7347H72.9846C73.307 14.7347 73.5488 15.015 73.5488 15.2953V15.9359C74.2741 15.0951 75.8458 14.3343 77.0548 14.3343ZM36.8768 28.4284C36.6753 27.9479 36.4738 27.4274 36.2723 26.987C35.9499 26.2663 35.6275 25.5856 35.3455 24.9449L35.3052 24.9049C32.5245 18.8989 29.5424 12.8128 26.3991 6.80681L26.2782 6.56657C25.9558 5.96597 25.6334 5.32533 25.311 4.68468C24.9081 3.96396 24.5051 3.2032 23.8603 2.48248C22.5707 0.880881 20.717 0 18.7423 0C16.7274 0 14.9139 0.880881 13.5841 2.4024C12.9796 3.12312 12.5363 3.88388 12.1333 4.6046C11.8109 5.24525 11.4885 5.88589 11.1661 6.48649L11.0452 6.72673C7.94223 12.7327 4.91982 18.8188 2.1392 24.8248L2.0989 24.9049C1.81681 25.5455 1.49442 26.2262 1.17202 26.9469C0.97053 27.3874 0.769036 27.8679 0.567542 28.3884C0.0436567 29.8699 -0.117538 31.2713 0.083956 32.7127C0.527243 35.7157 2.54219 38.2382 5.32281 39.3594C6.37058 39.7998 7.45865 40 8.58701 40C8.9094 40 9.31239 39.96 9.63479 39.9199C10.9646 39.7598 12.3348 39.3193 13.6647 38.5586C15.3169 37.6376 16.8886 36.3163 18.6617 34.3944C20.4349 36.3163 22.0468 37.6376 23.6588 38.5586C24.9886 39.3193 26.3588 39.7598 27.6887 39.9199C28.0111 39.96 28.4141 40 28.7364 40C29.8648 40 30.9932 39.7998 32.0006 39.3594C34.8216 38.2382 36.7962 35.6757 37.2395 32.7127C37.5619 31.3113 37.4007 29.9099 36.8768 28.4284ZM18.702 30.5105C16.5259 27.7878 15.1154 25.2252 14.6318 23.0631C14.4303 22.1421 14.39 21.3413 14.5109 20.6206C14.5915 19.98 14.8333 19.4194 15.1557 18.9389C15.9214 17.8579 17.211 17.1772 18.702 17.1772C20.1931 17.1772 21.5229 17.8178 22.2483 18.9389C22.5707 19.4194 22.8125 19.98 22.8931 20.6206C23.014 21.3413 22.9737 22.1822 22.7722 23.0631C22.2886 25.1852 20.8782 27.7477 18.702 30.5105ZM34.7813 32.3924C34.4992 34.4745 33.0887 36.2763 31.1141 37.0771C30.1469 37.4775 29.0991 37.5976 28.0514 37.4775C27.0439 37.3574 26.0364 37.037 24.9886 36.4364C23.5379 35.6356 22.0871 34.3944 20.3946 32.5526C23.0543 29.3093 24.6663 26.3463 25.2707 23.7037C25.5528 22.4625 25.5931 21.3413 25.4722 20.3003C25.311 19.2993 24.9483 18.3784 24.3842 17.5776C23.1349 15.7758 21.0394 14.7347 18.702 14.7347C16.3647 14.7347 14.2692 15.8158 13.0199 17.5776C12.4557 18.3784 12.093 19.2993 11.9318 20.3003C11.7706 21.3413 11.8109 22.5025 12.1333 23.7037C12.7378 26.3463 14.39 29.3493 17.0095 32.5926C15.3572 34.4344 13.8662 35.6757 12.4154 36.4765C11.3676 37.0771 10.3602 37.3974 9.35269 37.5175C8.26462 37.6376 7.21685 37.4775 6.28998 37.1171C4.31534 36.3163 2.90488 34.5145 2.62278 32.4324C2.50189 31.4314 2.58248 30.4304 2.98547 29.3093C3.10637 28.9089 3.30786 28.5085 3.50936 28.028C3.79145 27.3874 4.11384 26.7067 4.43623 26.026L4.47653 25.9459C7.25715 19.98 10.2393 13.8939 13.3423 7.96797L13.4632 7.72773C13.7856 7.12713 14.108 6.48649 14.4303 5.88589C14.7527 5.24525 15.1154 4.64464 15.5587 4.12412C16.405 3.16316 17.5334 2.64264 18.7826 2.64264C20.0319 2.64264 21.1603 3.16316 22.0065 4.12412C22.4498 4.64464 22.8125 5.24525 23.1349 5.88589C23.4573 6.48649 23.7797 7.12713 24.1021 7.72773L24.223 7.96797C27.2857 13.9339 30.2678 20.02 33.0484 25.986V26.026C33.3708 26.6667 33.6529 27.3874 33.9753 28.028C34.1768 28.5085 34.3783 28.9089 34.4992 29.3093C34.8216 30.3503 34.9425 31.3514 34.7813 32.3924Z" fill="#FE5504"/>
</svg>
