<svg width="77" height="20" viewBox="0 0 77 20" fill="none" xmlns="http://www.w3.org/2000/svg">
<path d="M43.7183 0L43.4963 0.0444713C43.3741 0.072266 42.1252 0.305742 40.7209 0.567012C39.3165 0.828282 38.112 1.05064 38.0454 1.06732C37.9454 1.08955 37.9232 1.12846 37.9343 1.30635C37.9454 1.49535 37.9621 1.51759 38.1675 1.56206C38.8724 1.71771 39.0001 1.7733 39.261 2.04013C39.5774 2.37367 39.7273 2.79615 39.8216 3.68002C39.8938 4.386 39.9104 16.5156 39.8383 18.3056L39.7994 19.3673L40.3712 19.4896C42.536 19.9566 44.6952 20.1178 46.0496 19.9121C47.7371 19.662 48.9694 19.0783 50.0185 18.0499C51.5172 16.5656 52.2388 14.4644 52.1833 11.8795C52.1278 10.5509 51.9058 9.67812 51.3507 8.59968C50.5958 7.13768 49.3246 6.11483 47.8703 5.81465C46.7879 5.58673 45.3836 5.76462 44.3233 6.26493C44.0569 6.38722 43.8016 6.48728 43.7572 6.48728C43.685 6.48728 43.6794 6.07592 43.6961 3.24642L43.7183 0ZM0 0.372449L0.0166522 0.722662L0.0333049 1.06732L0.532879 1.12847C1.19898 1.21185 1.44321 1.28411 1.70965 1.47868C2.12042 1.7733 2.3702 2.2069 2.52563 2.89065C2.76986 3.95241 2.85867 6.34831 2.81982 10.8233C2.77541 15.5539 2.71435 16.5378 2.41461 17.494C2.16482 18.2778 1.7041 18.6947 0.94364 18.8226C0.732709 18.8559 0.438515 18.9115 0.283092 18.9449L0.00555074 19.006V19.6064H9.94153V19.3006C9.94153 19.1339 9.92488 18.9949 9.90822 18.9949C9.64178 18.9949 8.4095 18.7281 8.20967 18.628C7.50472 18.2722 7.18277 17.4273 7.0551 15.6317C6.96629 14.3532 6.87747 10.5898 6.93298 10.5342C6.98849 10.4786 9.33094 10.5731 9.60848 10.6398C10.3634 10.8233 10.9518 11.5682 11.2404 12.73L11.3736 13.2414L11.7122 13.2581L12.0508 13.2747V6.82082H11.69C11.3514 6.82082 11.3292 6.83194 11.3292 6.94868C11.3292 7.15992 11.1183 7.82699 10.9185 8.24391C10.6076 8.90542 10.1691 9.30011 9.60848 9.42796C9.46971 9.46132 8.82026 9.51135 8.16526 9.5447C7.24383 9.58361 6.96629 9.58361 6.92743 9.52802C6.86637 9.43352 7.01069 2.1124 7.08285 1.7733L7.11061 1.64545L9.15331 1.66212L11.1905 1.6788L11.6623 1.85113C12.7613 2.24581 13.5551 3.0463 14.2157 4.44159C14.36 4.75845 14.5543 5.21429 14.6375 5.45888C14.7208 5.70347 14.793 5.91471 14.7985 5.92027C14.8096 5.93139 14.9928 5.88692 15.2037 5.82021L15.5978 5.69791L15.5701 3.8857C15.5534 2.88509 15.5312 1.68436 15.509 1.22297L15.4813 0.372449H0ZM37.2183 5.49779C37.1572 5.49779 37.0962 5.49779 37.0296 5.50335C35.653 5.58118 34.4262 6.4984 33.5492 8.11049C33.3993 8.38288 33.2494 8.59968 33.2106 8.59968C33.1551 8.59968 33.1495 8.29394 33.1773 7.07097L33.2161 5.5367L33.0829 5.57006C33.0108 5.58673 31.9006 5.80909 30.6184 6.07036C27.8651 6.6207 27.4821 6.70408 27.4211 6.74299C27.3933 6.75967 27.3711 6.85973 27.3711 6.96535C27.3711 7.17103 27.3434 7.15991 27.9706 7.25998C28.831 7.39895 29.1307 7.82143 29.2584 9.0444C29.4305 10.6454 29.3639 16.8769 29.1696 17.7275C29.0697 18.1611 28.8143 18.5835 28.559 18.7281C28.4591 18.7837 28.1593 18.8726 27.8929 18.9282L27.3989 19.0227L27.3822 19.3173L27.3656 19.6064H35.5308V19.006L35.0979 18.9671C34.1098 18.8837 33.8378 18.7837 33.5769 18.4112C33.1995 17.8664 33.1162 16.8603 33.1162 12.7911V9.61141L33.255 9.46132C33.4271 9.27787 33.9711 9.02216 34.3541 8.93878C35.1312 8.77757 36.1303 8.91654 36.9074 9.30011C37.1295 9.41129 37.3237 9.48911 37.3349 9.47799C37.3571 9.45576 38.6393 6.07036 38.6782 5.92583C38.6948 5.86468 38.6226 5.80353 38.4062 5.72015C38.0009 5.55894 37.6457 5.48667 37.2183 5.49779ZM20.6269 5.54226C18.6341 5.54226 17.0299 6.16486 15.7921 7.40451C14.471 8.73865 13.7716 10.6009 13.7716 12.78C13.7716 15.0481 14.4044 16.8769 15.6311 18.1555C16.3028 18.8615 16.9633 19.284 17.907 19.6231C18.24 19.7398 18.4842 19.7954 19.3779 19.9622C19.4556 19.9788 19.9663 19.9788 20.5159 19.9677C21.2597 19.951 21.6371 19.9177 21.9868 19.8399C22.9693 19.6064 23.7575 19.2562 24.4569 18.7336C26.1666 17.4551 27.0991 15.4983 27.1879 13.019C27.2712 10.5787 26.5385 8.49962 25.1119 7.15436C23.9629 6.0648 22.5086 5.54226 20.6269 5.54226ZM60.1765 5.54226C58.2892 5.54226 56.735 6.17042 55.5138 7.42674C54.5147 8.42735 53.9596 9.55026 53.6265 11.129C53.5155 11.6071 53.5155 11.8517 53.5155 12.8523C53.5155 13.8473 53.5155 14.103 53.6265 14.5589C54.2371 17.4773 56.1799 19.3951 58.9553 19.8899C59.6214 20.0122 60.6761 20.0233 61.3422 19.9121C62.6189 19.7009 63.8956 19.0838 64.7837 18.2222C65.2833 17.7497 65.4498 17.5218 65.3943 17.3995C65.2278 17.0826 65.2278 17.0826 64.7282 17.3717C64.0066 17.8331 63.618 17.9609 62.7299 18.0554C61.7307 18.1611 60.7316 17.9887 59.899 17.5329C59.2884 17.2327 58.5668 16.5434 58.2337 15.9208C57.7896 15.0703 57.5121 14.0808 57.4566 12.8078C57.4011 12.2686 57.4011 12.1352 57.4566 12.0963C57.5121 12.0685 59.3439 12.0462 61.6197 12.0462H65.6718V11.885C65.6718 11.5181 65.5608 10.5398 65.4498 10.0228C65.0057 7.94928 63.8956 6.47617 62.2303 5.88136C61.6197 5.64232 61.0091 5.54226 60.1765 5.54226ZM72.3328 5.57562C71.1116 5.57562 71.0006 5.58673 70.501 5.72015C69.0023 6.12595 67.8921 6.95979 67.3371 8.12161C67.0595 8.74421 66.9485 9.21672 66.9485 9.96162C66.9485 11.0178 67.226 11.8016 67.8921 12.4854C68.3917 13.0691 69.1133 13.486 70.3345 13.9363C71.2782 14.292 72.2773 14.7812 72.6659 15.0925C72.8879 15.276 73.0544 15.4872 73.1654 15.7207C73.332 16.0598 73.3875 16.1043 73.3875 16.6324C73.3875 17.1438 73.332 17.2216 73.1654 17.5607C72.7769 18.4557 71.9442 18.8948 70.8341 18.8059C69.3354 18.6836 68.2807 17.6885 67.3926 15.5873C67.1705 15.0425 67.1705 15.0314 66.8375 15.1592L66.671 15.2204L66.7265 17.1771C66.7265 18.9171 66.7265 19.145 66.8375 19.2061C67.0595 19.3951 68.6693 19.7731 69.7794 19.9066C70.6676 20.0122 71.9442 20.0122 72.6103 19.9177C74.9972 19.5564 76.4959 18.2889 76.8845 16.3544C77.1065 15.4205 76.9955 14.381 76.6625 13.6861C76.2184 12.7133 75.3858 12.1296 73.443 11.2958C71.9998 10.6843 71.1116 10.1617 70.7786 9.68923C70.4455 9.30567 70.39 9.00548 70.39 8.4885C70.39 7.71025 70.6676 7.11544 71.2226 6.74299C71.7222 6.43169 72.2773 6.35387 72.9989 6.51508C73.8315 6.7152 74.4421 7.22106 74.9972 8.16608C75.1637 8.46627 75.5523 9.31123 75.7188 9.83377C75.7743 9.91159 75.7743 9.91715 75.9964 9.86156C76.1074 9.82265 76.2184 9.77818 76.2739 9.75594V7.9882L76.2184 6.25381L75.9964 6.17042C75.6633 6.02589 74.7752 5.7813 74.2201 5.67568C73.776 5.59229 73.3875 5.57562 72.3328 5.57562ZM20.2994 6.48728C20.8322 6.48728 21.1264 6.6207 21.5428 7.03762C22.5364 8.04379 23.0082 9.95606 23.0026 12.9634C22.9971 15.3649 22.7584 16.8769 22.2255 17.8998C21.9646 18.3945 21.4817 18.8504 21.0876 18.9671C19.5667 19.4174 18.4842 17.9721 18.0624 14.9369C17.9236 13.9585 17.9292 11.2902 18.0624 10.1673C18.3621 7.72693 19.1115 6.49284 20.2994 6.48728ZM59.899 6.49284C60.8426 6.48728 61.4532 7.81587 61.5642 10.234V10.9233L60.6206 10.9567C60.0655 10.9733 59.1774 10.9956 58.6223 11.0067L57.5676 11.0234V10.801C57.5676 10.6732 57.6231 10.3507 57.6786 10.0728C58.0117 7.83255 58.8443 6.49284 59.899 6.49284ZM45.0505 7.23774C45.5223 7.23774 45.5834 7.25442 45.9775 7.44898C46.9322 7.92149 47.5872 9.09443 47.8925 10.8788C48.0035 11.5404 48.0202 13.3415 47.9147 14.1308C47.6649 16.0709 47.0321 17.6385 46.1884 18.4001C45.8554 18.7003 45.539 18.8615 45.1393 18.9393C44.8451 18.9949 44.7563 18.9949 44.229 18.956C44.0014 18.9393 43.9514 18.9115 43.907 18.7948C43.8349 18.6058 43.7516 12.0907 43.7849 9.48911L43.8127 7.45454L44.1846 7.34892C44.4288 7.27665 44.7174 7.23774 45.0505 7.23774Z" fill="#FE5504"/>
</svg>
